C:\Users\israe\Dropbox\PhDWork\ExperimentalData\subject1\145\P1S145W06_filtered35.mot
nRows=13
nColumns=28

name C:\Users\israe\Dropbox\PhDWork\ExperimentalData\subject1\145\P1S145W06_filtered35.mot
datacolumns 28
datarows 13
range 1.2370000000 1.2490000000
endheader
time	ground_force_1_vx	ground_force_1_vy	ground_force_1_vz	ground_force_1_px	ground_force_1_py	ground_force_1_pz	ground_moment_1_mx	ground_moment_1_my	ground_moment_1_mz	ground_force_2_vx	ground_force_2_vy	ground_force_2_vz	ground_force_2_px	ground_force_2_py	ground_force_2_pz	ground_moment_2_mx	ground_moment_2_my	ground_moment_2_mz	ground_force_3_vx	ground_force_3_vy	ground_force_3_vz	ground_force_3_px	ground_force_3_py	ground_force_3_pz	ground_moment_3_mx	ground_moment_3_my	ground_moment_3_mz
        1.2370000000	        1.7096635990	      156.2022702911	       22.7878719000	        0.2000000000	        0.0000000000	       -0.9030000000	       43.0773205028	       -0.1844646134	      -10.2661977052	       -0.0000000000	        0.0000000000	        0.0000000000	        0.2000000000	        0.0000000000	       -0.3000000000	        0.0000000000	        0.0000000000	        0.0000000000	       -0.0000000000	        0.0000000000	        0.0000000000	        0.2000000000	       -0.0000000000	        0.3030000000	        0.0000000000	        0.0000000000	       -0.0000000000	
        1.2380000000	        1.3493954618	      153.6032064887	       22.1444041928	        0.2000000000	        0.0000000000	       -0.9030000000	       42.3900382373	       -0.1251243387	      -10.0896296436	       -0.0000000000	        0.0000000000	        0.0000000000	        0.2000000000	        0.0000000000	       -0.3000000000	       -0.0000000000	        0.0000000000	       -0.0000000000	       -0.0000000000	        0.0000000000	        0.0000000000	        0.2000000000	       -0.0000000000	        0.3030000000	        0.0000000000	        0.0000000000	       -0.0000000000	
        1.2390000000	        0.9940769876	      151.0592153489	       21.5184768074	        0.2000000000	        0.0000000000	       -0.9030000000	       41.7166450474	       -0.0661466544	       -9.9196252320	       -0.0000000000	        0.0000000000	        0.0000000000	        0.2000000000	        0.0000000000	       -0.3000000000	       -0.0000000000	        0.0000000000	       -0.0000000000	       -0.0000000000	        0.0000000000	        0.0000000000	        0.2000000000	       -0.0000000000	        0.3030000000	        0.0000000000	        0.0000000000	       -0.0000000000	
        1.2400000000	        0.6443333943	      148.5644411295	       20.9085283165	        0.2000000000	        0.0000000000	       -0.9030000000	       41.0563437355	       -0.0076163663	       -9.7563232198	       -0.0000000000	        0.0000000000	        0.0000000000	        0.2000000000	        0.0000000000	       -0.3000000000	       -0.0000000000	        0.0000000000	       -0.0000000000	       -0.0000000000	        0.0000000000	        0.0000000000	        0.2000000000	       -0.0000000000	        0.3030000000	        0.0000000000	        0.0000000000	       -0.0000000000	
        1.2410000000	        0.3002106740	      146.1148373080	       20.3120758329	        0.2000000000	        0.0000000000	       -0.9030000000	       40.4086712448	        0.0504747990	       -9.5991883230	        0.0000000000	        0.0000000000	        0.0000000000	        0.2000000000	        0.0000000000	       -0.3000000000	       -0.0000000000	       -0.0000000000	       -0.0000000000	       -0.0000000000	        0.0000000000	        0.0000000000	        0.2000000000	       -0.0000000000	        0.3030000000	        0.0000000000	        0.0000000000	       -0.0000000000	
        1.2420000000	       -0.0383348151	      143.7098502026	       19.7266744680	        0.2000000000	        0.0000000000	       -0.9030000000	       39.7734800494	        0.1081949900	       -9.4472469889	        0.0000000000	        0.0000000000	        0.0000000000	        0.2000000000	        0.0000000000	       -0.3000000000	       -0.0000000000	       -0.0000000000	       -0.0000000000	       -0.0000000000	        0.0000000000	        0.0000000000	        0.2000000000	       -0.0000000000	        0.3030000000	        0.0000000000	        0.0000000000	       -0.0000000000	
        1.2430000000	       -0.3712859572	      141.3523577841	       19.1507371780	        0.2000000000	        0.0000000000	       -0.9030000000	       39.1508455273	        0.1656164478	       -9.2993885354	        0.0000000000	        0.0000000000	       -0.0000000000	        0.2000000000	        0.0000000000	       -0.3000000000	       -0.0000000000	       -0.0000000000	       -0.0000000000	       -0.0000000000	        0.0000000000	        0.0000000000	        0.2000000000	       -0.0000000000	        0.3030000000	        0.0000000000	        0.0000000000	       -0.0000000000	
        1.2440000000	       -0.6986617918	      139.0457621450	       18.5833060002	        0.2000000000	        0.0000000000	       -0.9030000000	       38.5410127510	        0.2228055168	       -9.1546740553	        0.0000000000	        0.0000000000	       -0.0000000000	        0.2000000000	        0.0000000000	       -0.3000000000	       -0.0000000000	       -0.0000000000	       -0.0000000000	        0.0000000000	        0.0000000000	        0.0000000000	        0.2000000000	       -0.0000000000	        0.3030000000	        0.0000000000	        0.0000000000	       -0.0000000000	
        1.2450000000	       -1.0206160105	      136.7904372448	       18.0233063030	        0.2000000000	        0.0000000000	       -0.9030000000	       37.9441454042	        0.2798518209	       -9.0125588160	        0.0000000000	        0.0000000000	       -0.0000000000	        0.2000000000	        0.0000000000	       -0.3000000000	       -0.0000000000	       -0.0000000000	       -0.0000000000	        0.0000000000	        0.0000000000	       -0.0000000000	        0.2000000000	       -0.0000000000	        0.3030000000	       -0.0000000000	       -0.0000000000	        0.0000000000	
        1.2460000000	       -1.3376594121	      134.5843105418	       17.4693352951	        0.2000000000	        0.0000000000	       -0.9030000000	       37.3599509024	        0.3368301143	       -8.8728333626	        0.0000000000	        0.0000000000	       -0.0000000000	        0.2000000000	        0.0000000000	       -0.3000000000	       -0.0000000000	       -0.0000000000	       -0.0000000000	        0.0000000000	        0.0000000000	       -0.0000000000	        0.2000000000	       -0.0000000000	        0.3030000000	       -0.0000000000	       -0.0000000000	        0.0000000000	
        1.2470000000	       -1.6508820127	      132.4261014239	       16.9202678634	        0.2000000000	        0.0000000000	       -0.9030000000	       36.7876558293	        0.3937068705	       -8.7353116050	        0.0000000000	        0.0000000000	       -0.0000000000	        0.2000000000	        0.0000000000	       -0.3000000000	       -0.0000000000	       -0.0000000000	       -0.0000000000	        0.0000000000	        0.0000000000	       -0.0000000000	        0.2000000000	       -0.0000000000	        0.3030000000	       -0.0000000000	       -0.0000000000	        0.0000000000	
        1.2480000000	       -1.9615880531	      130.3156944180	       16.3756732502	        0.2000000000	        0.0000000000	       -0.9030000000	       36.2263335131	        0.4503037095	       -8.5996297474	        0.0000000000	        0.0000000000	       -0.0000000000	        0.2000000000	        0.0000000000	       -0.3000000000	       -0.0000000000	       -0.0000000000	       -0.0000000000	        0.0000000000	        0.0000000000	       -0.0000000000	        0.2000000000	       -0.0000000000	        0.3030000000	       -0.0000000000	       -0.0000000000	        0.0000000000	
        1.2490000000	       -2.2703079583	      128.2523901342	       15.8356795665	        0.2000000000	        0.0000000000	       -0.9030000000	       35.6751632118	        0.5063740918	       -8.4654196593	        0.0000000000	        0.0000000000	       -0.0000000000	        0.2000000000	        0.0000000000	       -0.3000000000	       -0.0000000000	       -0.0000000000	       -0.0000000000	        0.0000000000	        0.0000000000	       -0.0000000000	        0.2000000000	       -0.0000000000	        0.3030000000	       -0.0000000000	       -0.0000000000	        0.0000000000	
